<?xml version="1.0" encoding="utf-8"?>
<svg xmlns="http://www.w3.org/2000/svg" viewBox="0 0 800 600" xmlns:bx="https://boxy-svg.com">
  <defs>
    <bx:grid x="0" y="0" width="25" height="25"/>
  </defs>
  <line style="fill: rgb(216, 216, 216); stroke: rgb(0, 0, 0);" x1="75" y1="300" x2="575" y2="196.979"/>
  <line style="fill: rgb(216, 216, 216); stroke: rgb(0, 0, 0);" x1="75" y1="300" x2="625" y2="400"/>
  <line style="fill: rgb(216, 216, 216); stroke: rgb(0, 0, 0);" x1="75" y1="300" x2="625" y2="250"/>
  <line style="fill: rgb(216, 216, 216); stroke: rgb(0, 28, 255);" x1="-42.11" y1="300" x2="826.112" y2="300">
    <title>Axiz Z</title>
  </line>
  <line style="fill: rgb(216, 216, 216); stroke: rgb(21, 255, 0);" x1="400" y1="600" x2="399.994" y2="0">
    <title>Axiz Y</title>
  </line>
  <path d="M 300 100 L 500 250 L 500 500 L 300 350 L 300 100 Z" style="stroke: rgb(0, 0, 0); vector-effect: non-scaling-stroke; fill: rgba(216, 216, 216, 0.835);"/>
  <path d="M 183.581 108.198 L 256.46 93.092 L 256.46 158.209 L 183.581 166.706 L 183.581 108.198 Z" style="stroke: rgb(0, 0, 0); vector-effect: non-scaling-stroke; fill: rgb(130, 0, 113);" transform="matrix(0.686065, 0.727541, 0, 1.457589, 249.051529, -54.573029)"/>
  <g>
    <rect x="183.574" y="190.309" width="72.879" height="102.909" style="fill: rgb(130, 0, 113); stroke: rgb(0, 0, 0);" transform="matrix(0.686065, 0.727541, 0, 1.457589, 449.056305, -213.97142)"/>
    <rect x="625" y="250" width="150" height="150" style="fill: rgb(130, 0, 113); stroke: rgb(0, 0, 0);"/>
    <path d="M 575 196.979 L 725 196.979 L 775 250 L 625 250 L 575 196.979 Z" style="fill: rgb(130, 0, 113); stroke: rgb(0, 0, 0);"/>
  </g>
  <line style="fill: rgb(255, 0, 0); stroke: rgb(255, 0, 0);" x1="0" y1="0" x2="800" y2="600">
    <title>Axis X</title>
  </line>
  <ellipse style="stroke: rgb(0, 0, 0); fill: rgb(0, 241, 255);" cx="400" cy="300" rx="8" ry="8">
    <title>Eye</title>
  </ellipse>
</svg>